<svg version="1.1" id="Layer_1" xmlns="http://www.w3.org/2000/svg" x="0" y="0" viewBox="0 0 116 15" xml:space="preserve"><style>.st0{fill:#fff}</style><path class="st0" d="M100.9 9h-.3c-.6 0-1-.9-1-2s.4-2 1-2h.3c.6 0 1 .9 1 2s-.4 2-1 2zm-12.2-.3h-.3c-.6 0-1-.8-1-1.7 0-.9.4-1.7 1-1.7h.3c.6 0 1 .8 1 1.7 0 1-.4 1.7-1 1.7zm-12.2-.2h-.3c-.6 0-1-.7-1-1.5s.4-1.5 1-1.5h.3c.6 0 1 .7 1 1.5s-.5 1.5-1 1.5zm-12.2-.3H64c-.6 0-1-.6-1-1.2 0-.7.4-1.2 1-1.2h.3c.6 0 1 .5 1 1.2s-.5 1.3-1 1.2zM52 8h-.3c-.6 0-1-.5-1-1s.4-1 1-1h.3c.6 0 1 .4 1 1s-.4 1-1 1zm-12.2-.2h-.3c-.6 0-1-.3-1-.8 0-.4.4-.7 1-.8h.3c.6 0 1 .3 1 .8 0 .4-.4.8-1 .8zm-12.2-.3h-.3c-.6 0-1-.2-1-.5s.4-.5 1-.5h.3c.6 0 1 .2 1 .5s-.5.5-1 .5zm-12.2-.2h-.3c-.6 0-1-.1-1-.3 0-.1.4-.2 1-.3h.3c.6 0 1 .1 1 .3 0 .2-.5.3-1 .3zM3.1 7H2h1.1c.6-.1 1 0 1 0h-1z"/></svg>